{
	"asset":{
		"generator":"Khronos glTF Blender I/O v3.6.27",
		"version":"2.0"
	},
	"scene":0,
	"scenes":[
		{
			"name":"Scene",
			"nodes":[
				0,
				1,
				2,
				3,
				4,
				5,
				6,
				7,
				8
			]
		}
	],
	"nodes":[
		{
			"mesh":0,
			"name":"\u0426\u0438\u043b\u0438\u043d\u0434\u0440",
			"rotation":[
				0,
				0,
				-0.7071068286895752,
				0.7071068286895752
			],
			"scale":[
				5.017263412475586,
				0.7054092288017273,
				5.017263412475586
			]
		},
		{
			"mesh":1,
			"name":"\u041e\u043a\u0440\u0443\u0436\u043d\u043e\u0441\u0442\u044c\u0411\u0435\u0437\u044c\u0435",
			"rotation":[
				0,
				0,
				-0.7071068286895752,
				0.7071068286895752
			],
			"scale":[
				4.124896049499512,
				4.124896049499512,
				4.124896049499512
			],
			"translation":[
				0.2893564701080322,
				-0.23282837867736816,
				0.060495465993881226
			]
		},
		{
			"mesh":2,
			"name":"\u0422\u0435\u043a\u0441\u0442",
			"rotation":[
				0.7071068286895752,
				0.7071068286895752,
				0,
				2.6692539734085585e-08
			],
			"scale":[
				2.085875988006592,
				1.019680380821228,
				1.019680380821228
			],
			"translation":[
				0.7292821407318115,
				-0.3752068281173706,
				-0.06119309365749359
			]
		},
		{
			"mesh":3,
			"name":"\u041e\u043a\u0440\u0443\u0436\u043d\u043e\u0441\u0442\u044c\u0411\u0435\u0437\u044c\u0435.001",
			"rotation":[
				0.7070946097373962,
				-0.7070944905281067,
				-0.0041628736071288586,
				0.004162874072790146
			],
			"scale":[
				4.124896049499512,
				4.124896049499512,
				4.124896049499512
			],
			"translation":[
				-0.3661923408508301,
				-0.23282837867736816,
				-0.06377875804901123
			]
		},
		{
			"mesh":4,
			"name":"\u0422\u0435\u043a\u0441\u0442.001",
			"rotation":[
				0.0041629052720963955,
				0.004162904806435108,
				0.7070944905281067,
				0.7070946097373962
			],
			"scale":[
				2.085875988006592,
				1.019680380821228,
				1.019680380821228
			],
			"translation":[
				-0.8046555519104004,
				-0.3752068281173706,
				0.06308113038539886
			]
		},
		{
			"mesh":5,
			"name":"\u0422\u0435\u043a\u0441\u0442.002",
			"rotation":[
				0.5,
				0.5,
				-0.5,
				0.5
			],
			"scale":[
				6.895478248596191,
				6.895478248596191,
				6.895478248596191
			],
			"translation":[
				0.7138816118240356,
				-0.2688014507293701,
				4.049441337585449
			]
		},
		{
			"mesh":6,
			"name":"\u0422\u0435\u043a\u0441\u0442.003",
			"rotation":[
				0.5,
				0.5,
				-0.5,
				0.5
			],
			"scale":[
				6.895478248596191,
				6.895478248596191,
				6.895478248596191
			],
			"translation":[
				0.8724983930587769,
				-1.5090354681015015,
				1.1528456211090088
			]
		},
		{
			"mesh":7,
			"name":"\u0422\u0435\u043a\u0441\u0442.004",
			"rotation":[
				0.5095906257629395,
				-0.4902217984199524,
				0.4902218282222748,
				0.5095906853675842
			],
			"scale":[
				6.895478248596191,
				6.895478248596191,
				6.895478248596191
			],
			"translation":[
				-0.8597619533538818,
				-0.2688014507293701,
				-3.9975485801696777
			]
		},
		{
			"mesh":8,
			"name":"\u0422\u0435\u043a\u0441\u0442.005",
			"rotation":[
				0.5095906257629395,
				-0.4902217984199524,
				0.4902218282222748,
				0.5095906853675842
			],
			"scale":[
				6.895478248596191,
				6.895478248596191,
				6.895478248596191
			],
			"translation":[
				-0.9060747623443604,
				-1.5090354681015015,
				-1.096982717514038
			]
		}
	],
	"materials":[
		{
			"doubleSided":true,
			"name":"\u041c\u0430\u0442\u0435\u0440\u0438\u0430\u043b",
			"pbrMetallicRoughness":{
				"baseColorFactor":[
					0,
					0,
					0,
					1
				],
				"metallicFactor":0,
				"roughnessFactor":0.5
			}
		},
		{
			"doubleSided":true,
			"name":"\u041c\u0430\u0442\u0435\u0440\u0438\u0430\u043b.001",
			"pbrMetallicRoughness":{
				"baseColorFactor":[
					0,
					0.0014244976919144392,
					0.8000000715255737,
					1
				],
				"metallicFactor":0,
				"roughnessFactor":0.5
			}
		},
		{
			"doubleSided":true,
			"name":"\u041c\u0430\u0442\u0435\u0440\u0438\u0430\u043b.002",
			"pbrMetallicRoughness":{
				"baseColorFactor":[
					0.8000000715255737,
					0,
					0.00254259305074811,
					1
				],
				"metallicFactor":0,
				"roughnessFactor":0.5
			}
		}
	],
	"meshes":[
		{
			"name":"\u0426\u0438\u043b\u0438\u043d\u0434\u0440",
			"primitives":[
				{
					"attributes":{
						"POSITION":0,
						"NORMAL":1,
						"TEXCOORD_0":2
					},
					"indices":3,
					"material":0
				}
			]
		},
		{
			"name":"Mesh",
			"primitives":[
				{
					"attributes":{
						"POSITION":4
					},
					"indices":5,
					"mode":1
				}
			]
		},
		{
			"name":"\u0422\u0435\u043a\u0441\u0442",
			"primitives":[
				{
					"attributes":{
						"POSITION":6,
						"NORMAL":7,
						"TEXCOORD_0":8,
						"TANGENT":9
					},
					"indices":10
				}
			]
		},
		{
			"name":"Mesh",
			"primitives":[
				{
					"attributes":{
						"POSITION":11
					},
					"indices":5,
					"mode":1
				}
			]
		},
		{
			"name":"\u0422\u0435\u043a\u0441\u0442.004",
			"primitives":[
				{
					"attributes":{
						"POSITION":12,
						"NORMAL":13,
						"TEXCOORD_0":14,
						"TANGENT":15
					},
					"indices":16
				}
			]
		},
		{
			"name":"\u0422\u0435\u043a\u0441\u0442.005",
			"primitives":[
				{
					"attributes":{
						"POSITION":17,
						"NORMAL":18,
						"TEXCOORD_0":19,
						"TANGENT":20
					},
					"indices":21,
					"material":1
				}
			]
		},
		{
			"name":"\u0422\u0435\u043a\u0441\u0442.006",
			"primitives":[
				{
					"attributes":{
						"POSITION":22,
						"NORMAL":23,
						"TEXCOORD_0":24,
						"TANGENT":25
					},
					"indices":26,
					"material":2
				}
			]
		},
		{
			"name":"\u0422\u0435\u043a\u0441\u0442.007",
			"primitives":[
				{
					"attributes":{
						"POSITION":27,
						"NORMAL":28,
						"TEXCOORD_0":29,
						"TANGENT":30
					},
					"indices":21,
					"material":1
				}
			]
		},
		{
			"name":"\u0422\u0435\u043a\u0441\u0442.008",
			"primitives":[
				{
					"attributes":{
						"POSITION":31,
						"NORMAL":32,
						"TEXCOORD_0":33,
						"TANGENT":34
					},
					"indices":26,
					"material":2
				}
			]
		}
	],
	"accessors":[
		{
			"bufferView":0,
			"componentType":5126,
			"count":192,
			"max":[
				1,
				1,
				1
			],
			"min":[
				-1,
				-1,
				-1
			],
			"type":"VEC3"
		},
		{
			"bufferView":1,
			"componentType":5126,
			"count":192,
			"type":"VEC3"
		},
		{
			"bufferView":2,
			"componentType":5126,
			"count":192,
			"type":"VEC2"
		},
		{
			"bufferView":3,
			"componentType":5123,
			"count":372,
			"type":"SCALAR"
		},
		{
			"bufferView":4,
			"componentType":5126,
			"count":48,
			"max":[
				1,
				0,
				1
			],
			"min":[
				-1,
				0,
				-1
			],
			"type":"VEC3"
		},
		{
			"bufferView":5,
			"componentType":5123,
			"count":96,
			"type":"SCALAR"
		},
		{
			"bufferView":6,
			"componentType":5126,
			"count":18888,
			"max":[
				0.05520729348063469,
				0.09000027179718018,
				4.009241580963135
			],
			"min":[
				-1.9718940258026123,
				-0.09000074863433838,
				-4.290792465209961
			],
			"type":"VEC3"
		},
		{
			"bufferView":7,
			"componentType":5126,
			"count":18888,
			"type":"VEC3"
		},
		{
			"bufferView":8,
			"componentType":5126,
			"count":18888,
			"type":"VEC2"
		},
		{
			"bufferView":9,
			"componentType":5126,
			"count":18888,
			"type":"VEC4"
		},
		{
			"bufferView":10,
			"componentType":5123,
			"count":45492,
			"type":"SCALAR"
		},
		{
			"bufferView":11,
			"componentType":5126,
			"count":48,
			"max":[
				1,
				0,
				1
			],
			"min":[
				-1,
				0,
				-1
			],
			"type":"VEC3"
		},
		{
			"bufferView":12,
			"componentType":5126,
			"count":18726,
			"max":[
				0.055206313729286194,
				0.08999976515769958,
				4.009241104125977
			],
			"min":[
				-1.9718941450119019,
				-0.09000170230865479,
				-4.290792465209961
			],
			"type":"VEC3"
		},
		{
			"bufferView":13,
			"componentType":5126,
			"count":18726,
			"type":"VEC3"
		},
		{
			"bufferView":14,
			"componentType":5126,
			"count":18726,
			"type":"VEC2"
		},
		{
			"bufferView":15,
			"componentType":5126,
			"count":18726,
			"type":"VEC4"
		},
		{
			"bufferView":16,
			"componentType":5123,
			"count":45492,
			"type":"SCALAR"
		},
		{
			"bufferView":17,
			"componentType":5126,
			"count":857,
			"max":[
				0.7932603359222412,
				0.04999999701976776,
				0.011983952485024929
			],
			"min":[
				0.09741794317960739,
				-0.04999999701976776,
				-0.5242012739181519
			],
			"type":"VEC3"
		},
		{
			"bufferView":18,
			"componentType":5126,
			"count":857,
			"type":"VEC3"
		},
		{
			"bufferView":19,
			"componentType":5126,
			"count":857,
			"type":"VEC2"
		},
		{
			"bufferView":20,
			"componentType":5126,
			"count":857,
			"type":"VEC4"
		},
		{
			"bufferView":21,
			"componentType":5123,
			"count":2544,
			"type":"SCALAR"
		},
		{
			"bufferView":22,
			"componentType":5126,
			"count":750,
			"max":[
				0.7712253332138062,
				0.04999999701976776,
				0
			],
			"min":[
				-0.02667395956814289,
				-0.04999999701976776,
				-0.5242012739181519
			],
			"type":"VEC3"
		},
		{
			"bufferView":23,
			"componentType":5126,
			"count":750,
			"type":"VEC3"
		},
		{
			"bufferView":24,
			"componentType":5126,
			"count":750,
			"type":"VEC2"
		},
		{
			"bufferView":25,
			"componentType":5126,
			"count":750,
			"type":"VEC4"
		},
		{
			"bufferView":26,
			"componentType":5123,
			"count":2232,
			"type":"SCALAR"
		},
		{
			"bufferView":27,
			"componentType":5126,
			"count":857,
			"max":[
				0.7932603359222412,
				0.04999999701976776,
				0.011983952485024929
			],
			"min":[
				0.09741794317960739,
				-0.04999999701976776,
				-0.5242012739181519
			],
			"type":"VEC3"
		},
		{
			"bufferView":28,
			"componentType":5126,
			"count":857,
			"type":"VEC3"
		},
		{
			"bufferView":29,
			"componentType":5126,
			"count":857,
			"type":"VEC2"
		},
		{
			"bufferView":30,
			"componentType":5126,
			"count":857,
			"type":"VEC4"
		},
		{
			"bufferView":31,
			"componentType":5126,
			"count":750,
			"max":[
				0.7712253332138062,
				0.04999999701976776,
				0
			],
			"min":[
				-0.02667395956814289,
				-0.04999999701976776,
				-0.5242012739181519
			],
			"type":"VEC3"
		},
		{
			"bufferView":32,
			"componentType":5126,
			"count":750,
			"type":"VEC3"
		},
		{
			"bufferView":33,
			"componentType":5126,
			"count":750,
			"type":"VEC2"
		},
		{
			"bufferView":34,
			"componentType":5126,
			"count":750,
			"type":"VEC4"
		}
	],
	"bufferViews":[
		{
			"buffer":0,
			"byteLength":2304,
			"byteOffset":0,
			"target":34962
		},
		{
			"buffer":0,
			"byteLength":2304,
			"byteOffset":2304,
			"target":34962
		},
		{
			"buffer":0,
			"byteLength":1536,
			"byteOffset":4608,
			"target":34962
		},
		{
			"buffer":0,
			"byteLength":744,
			"byteOffset":6144,
			"target":34963
		},
		{
			"buffer":0,
			"byteLength":576,
			"byteOffset":6888,
			"target":34962
		},
		{
			"buffer":0,
			"byteLength":192,
			"byteOffset":7464,
			"target":34963
		},
		{
			"buffer":0,
			"byteLength":226656,
			"byteOffset":7656,
			"target":34962
		},
		{
			"buffer":0,
			"byteLength":226656,
			"byteOffset":234312,
			"target":34962
		},
		{
			"buffer":0,
			"byteLength":151104,
			"byteOffset":460968,
			"target":34962
		},
		{
			"buffer":0,
			"byteLength":302208,
			"byteOffset":612072,
			"target":34962
		},
		{
			"buffer":0,
			"byteLength":90984,
			"byteOffset":914280,
			"target":34963
		},
		{
			"buffer":0,
			"byteLength":576,
			"byteOffset":1005264,
			"target":34962
		},
		{
			"buffer":0,
			"byteLength":224712,
			"byteOffset":1005840,
			"target":34962
		},
		{
			"buffer":0,
			"byteLength":224712,
			"byteOffset":1230552,
			"target":34962
		},
		{
			"buffer":0,
			"byteLength":149808,
			"byteOffset":1455264,
			"target":34962
		},
		{
			"buffer":0,
			"byteLength":299616,
			"byteOffset":1605072,
			"target":34962
		},
		{
			"buffer":0,
			"byteLength":90984,
			"byteOffset":1904688,
			"target":34963
		},
		{
			"buffer":0,
			"byteLength":10284,
			"byteOffset":1995672,
			"target":34962
		},
		{
			"buffer":0,
			"byteLength":10284,
			"byteOffset":2005956,
			"target":34962
		},
		{
			"buffer":0,
			"byteLength":6856,
			"byteOffset":2016240,
			"target":34962
		},
		{
			"buffer":0,
			"byteLength":13712,
			"byteOffset":2023096,
			"target":34962
		},
		{
			"buffer":0,
			"byteLength":5088,
			"byteOffset":2036808,
			"target":34963
		},
		{
			"buffer":0,
			"byteLength":9000,
			"byteOffset":2041896,
			"target":34962
		},
		{
			"buffer":0,
			"byteLength":9000,
			"byteOffset":2050896,
			"target":34962
		},
		{
			"buffer":0,
			"byteLength":6000,
			"byteOffset":2059896,
			"target":34962
		},
		{
			"buffer":0,
			"byteLength":12000,
			"byteOffset":2065896,
			"target":34962
		},
		{
			"buffer":0,
			"byteLength":4464,
			"byteOffset":2077896,
			"target":34963
		},
		{
			"buffer":0,
			"byteLength":10284,
			"byteOffset":2082360,
			"target":34962
		},
		{
			"buffer":0,
			"byteLength":10284,
			"byteOffset":2092644,
			"target":34962
		},
		{
			"buffer":0,
			"byteLength":6856,
			"byteOffset":2102928,
			"target":34962
		},
		{
			"buffer":0,
			"byteLength":13712,
			"byteOffset":2109784,
			"target":34962
		},
		{
			"buffer":0,
			"byteLength":9000,
			"byteOffset":2123496,
			"target":34962
		},
		{
			"buffer":0,
			"byteLength":9000,
			"byteOffset":2132496,
			"target":34962
		},
		{
			"buffer":0,
			"byteLength":6000,
			"byteOffset":2141496,
			"target":34962
		},
		{
			"buffer":0,
			"byteLength":12000,
			"byteOffset":2147496,
			"target":34962
		}
	],
	"buffers":[
		{
			"byteLength":2159496,
			"uri":"mon.bin"
		}
	]
}
