{
	"asset":{
		"generator":"Khronos glTF Blender I/O v3.6.27",
		"version":"2.0"
	},
	"extensionsUsed":[
		"KHR_materials_unlit"
	],
	"scene":0,
	"scenes":[
		{
			"name":"Scene",
			"nodes":[
				0,
				1,
				2
			]
		}
	],
	"nodes":[
		{
			"mesh":0,
			"name":"\u0421\u0444\u0435\u0440\u0430.002",
			"scale":[
				0.46589386463165283,
				0.46589386463165283,
				0.46589386463165283
			],
			"translation":[
				0.21811294555664062,
				1.5910245180130005,
				0.034879207611083984
			]
		},
		{
			"mesh":1,
			"name":"\u041f\u043b\u043e\u0441\u043a\u043e\u0441\u0442\u044c.006",
			"rotation":[
				0,
				0,
				-0.7071068286895752,
				0.7071068286895752
			],
			"scale":[
				0.6850824356079102,
				1,
				0.35206079483032227
			],
			"translation":[
				0.8528005480766296,
				0.708428144454956,
				-2.1963462829589844
			]
		},
		{
			"mesh":2,
			"name":"\u0426\u0438\u043b\u0438\u043d\u0434\u0440.001",
			"rotation":[
				0,
				0,
				-0.7071068286895752,
				0.7071068286895752
			],
			"scale":[
				0.04124170169234276,
				0.011581165716052055,
				0.04124170169234276
			],
			"translation":[
				0.5928735136985779,
				1.4736251831054688,
				2.923532009124756
			]
		}
	],
	"materials":[
		{
			"doubleSided":true,
			"extensions":{
				"KHR_materials_unlit":{}
			},
			"name":"\u041c\u0430\u0442\u0435\u0440\u0438\u0430\u043b.003",
			"pbrMetallicRoughness":{
				"baseColorTexture":{
					"index":0,
					"texCoord":0
				},
				"metallicFactor":0,
				"roughnessFactor":0.9
			}
		},
		{
			"doubleSided":true,
			"name":"\u041c\u0430\u0442\u0435\u0440\u0438\u0430\u043b.001",
			"pbrMetallicRoughness":{
				"baseColorFactor":[
					0,
					0,
					0,
					1
				],
				"metallicFactor":0,
				"roughnessFactor":0.5
			}
		},
		{
			"doubleSided":true,
			"name":"\u041c\u0430\u0442\u0435\u0440\u0438\u0430\u043b.013",
			"pbrMetallicRoughness":{
				"baseColorTexture":{
					"index":1
				},
				"metallicFactor":0,
				"roughnessFactor":0.5
			}
		},
		{
			"doubleSided":true,
			"name":"\u041c\u0430\u0442\u0435\u0440\u0438\u0430\u043b.010",
			"pbrMetallicRoughness":{
				"baseColorFactor":[
					0,
					0,
					0,
					1
				],
				"metallicFactor":0,
				"roughnessFactor":0.5
			}
		},
		{
			"doubleSided":true,
			"name":"\u041c\u0430\u0442\u0435\u0440\u0438\u0430\u043b.011",
			"pbrMetallicRoughness":{
				"baseColorTexture":{
					"index":2
				},
				"metallicFactor":0,
				"roughnessFactor":0.5
			}
		},
		{
			"doubleSided":true,
			"name":"\u041c\u0430\u0442\u0435\u0440\u0438\u0430\u043b.012",
			"pbrMetallicRoughness":{
				"baseColorFactor":[
					0.800000011920929,
					0.800000011920929,
					0.800000011920929,
					1
				],
				"metallicFactor":0,
				"roughnessFactor":0.5
			}
		},
		{
			"doubleSided":true,
			"name":"\u041c\u0430\u0442\u0435\u0440\u0438\u0430\u043b.004",
			"pbrMetallicRoughness":{
				"baseColorFactor":[
					0.800000011920929,
					0.800000011920929,
					0.800000011920929,
					1
				],
				"metallicFactor":0,
				"roughnessFactor":0.5
			}
		},
		{
			"doubleSided":true,
			"name":"\u041c\u0430\u0442\u0435\u0440\u0438\u0430\u043b",
			"pbrMetallicRoughness":{
				"baseColorTexture":{
					"index":3
				},
				"metallicFactor":0,
				"roughnessFactor":0.5
			}
		},
		{
			"doubleSided":true,
			"name":"\u041c\u0430\u0442\u0435\u0440\u0438\u0430\u043b.002",
			"pbrMetallicRoughness":{
				"baseColorFactor":[
					0,
					0,
					0,
					1
				],
				"metallicFactor":0,
				"roughnessFactor":0.5
			}
		},
		{
			"doubleSided":true,
			"name":"\u041c\u0430\u0442\u0435\u0440\u0438\u0430\u043b.005",
			"pbrMetallicRoughness":{
				"baseColorTexture":{
					"index":4
				},
				"metallicFactor":0,
				"roughnessFactor":0.5
			}
		}
	],
	"meshes":[
		{
			"name":"\u0421\u0444\u0435\u0440\u0430.002",
			"primitives":[
				{
					"attributes":{
						"POSITION":0,
						"NORMAL":1,
						"TEXCOORD_0":2
					},
					"indices":3,
					"material":0
				},
				{
					"attributes":{
						"POSITION":4,
						"NORMAL":5,
						"TEXCOORD_0":6
					},
					"indices":7,
					"material":1
				}
			]
		},
		{
			"name":"\u041f\u043b\u043e\u0441\u043a\u043e\u0441\u0442\u044c.010",
			"primitives":[
				{
					"attributes":{
						"POSITION":8,
						"NORMAL":9,
						"TEXCOORD_0":10
					},
					"indices":11,
					"material":2
				},
				{
					"attributes":{
						"POSITION":12,
						"NORMAL":13,
						"TEXCOORD_0":14
					},
					"indices":15,
					"material":3
				},
				{
					"attributes":{
						"POSITION":16,
						"NORMAL":17,
						"TEXCOORD_0":18
					},
					"indices":19,
					"material":4
				},
				{
					"attributes":{
						"POSITION":20,
						"NORMAL":21,
						"TEXCOORD_0":22
					},
					"indices":23,
					"material":5
				}
			]
		},
		{
			"name":"\u0426\u0438\u043b\u0438\u043d\u0434\u0440.011",
			"primitives":[
				{
					"attributes":{
						"POSITION":24,
						"NORMAL":25,
						"TEXCOORD_0":26
					},
					"indices":27,
					"material":6
				},
				{
					"attributes":{
						"POSITION":28,
						"NORMAL":29,
						"TEXCOORD_0":30
					},
					"indices":31,
					"material":7
				},
				{
					"attributes":{
						"POSITION":32,
						"NORMAL":33,
						"TEXCOORD_0":34
					},
					"indices":35,
					"material":8
				},
				{
					"attributes":{
						"POSITION":36,
						"NORMAL":37,
						"TEXCOORD_0":38
					},
					"indices":39,
					"material":9
				}
			]
		}
	],
	"textures":[
		{
			"sampler":0,
			"source":0
		},
		{
			"sampler":0,
			"source":1
		},
		{
			"sampler":0,
			"source":2
		},
		{
			"sampler":0,
			"source":3
		},
		{
			"sampler":0,
			"source":1
		}
	],
	"images":[
		{
			"mimeType":"image/jpeg",
			"name":"mon",
			"uri":"mon.jpg"
		},
		{
			"mimeType":"image/png",
			"name":"77777",
			"uri":"77777.png"
		},
		{
			"mimeType":"image/png",
			"name":"FireShot Capture 044 - \u0417\u0430\u043a\u0430\u0437\u0430\u0442\u044c \u0441\u0430\u0439\u0442 - \u0420\u0430\u0437\u0440\u0430\u0431\u043e\u0442\u043a\u0430 \u0431\u044e\u0434\u0436\u0435\u0442\u043d\u044b\u0445 \u0441\u0430\u0439\u0442\u043e\u0432 - websites-master.ru",
			"uri":"FireShot%20Capture%20044%20-%20%D0%97%D0%B0%D0%BA%D0%B0%D0%B7%D0%B0%D1%82%D1%8C%20%D1%81%D0%B0%D0%B9%D1%82%20-%20%D0%A0%D0%B0%D0%B7%D1%80%D0%B0%D0%B1%D0%BE%D1%82%D0%BA%D0%B0%20%D0%B1%D1%8E%D0%B4%D0%B6%D0%B5%D1%82%D0%BD%D1%8B%D1%85%20%D1%81%D0%B0%D0%B9%D1%82%D0%BE%D0%B2%20-%20websites-master_ru.png"
		},
		{
			"mimeType":"image/png",
			"name":"FireShot Capture 043 - \u0417\u0430\u043a\u0430\u0437\u0430\u0442\u044c \u0441\u0430\u0439\u0442 - \u0420\u0430\u0437\u0440\u0430\u0431\u043e\u0442\u043a\u0430 \u0431\u044e\u0434\u0436\u0435\u0442\u043d\u044b\u0445 \u0441\u0430\u0439\u0442\u043e\u0432 - websites-master.ru",
			"uri":"FireShot%20Capture%20043%20-%20%D0%97%D0%B0%D0%BA%D0%B0%D0%B7%D0%B0%D1%82%D1%8C%20%D1%81%D0%B0%D0%B9%D1%82%20-%20%D0%A0%D0%B0%D0%B7%D1%80%D0%B0%D0%B1%D0%BE%D1%82%D0%BA%D0%B0%20%D0%B1%D1%8E%D0%B4%D0%B6%D0%B5%D1%82%D0%BD%D1%8B%D1%85%20%D1%81%D0%B0%D0%B9%D1%82%D0%BE%D0%B2%20-%20websites-master_ru.png"
		}
	],
	"accessors":[
		{
			"bufferView":0,
			"componentType":5126,
			"count":961,
			"max":[
				0.21932782232761383,
				2.9536776542663574,
				4.014683723449707
			],
			"min":[
				0.2193276435136795,
				-2.1798129081726074,
				-4.014683723449707
			],
			"type":"VEC3"
		},
		{
			"bufferView":1,
			"componentType":5126,
			"count":961,
			"type":"VEC3"
		},
		{
			"bufferView":2,
			"componentType":5126,
			"count":961,
			"type":"VEC2"
		},
		{
			"bufferView":3,
			"componentType":5123,
			"count":5400,
			"type":"SCALAR"
		},
		{
			"bufferView":4,
			"componentType":5126,
			"count":2191,
			"max":[
				0.9664953351020813,
				3.3519480228424072,
				4.637624263763428
			],
			"min":[
				-1.8754812479019165,
				-3.5177807807922363,
				-4.637624263763428
			],
			"type":"VEC3"
		},
		{
			"bufferView":5,
			"componentType":5126,
			"count":2191,
			"type":"VEC3"
		},
		{
			"bufferView":6,
			"componentType":5126,
			"count":2191,
			"type":"VEC2"
		},
		{
			"bufferView":7,
			"componentType":5123,
			"count":7134,
			"type":"SCALAR"
		},
		{
			"bufferView":8,
			"componentType":5126,
			"count":35,
			"max":[
				0.2441808432340622,
				-0.035522930324077606,
				0.3662712574005127
			],
			"min":[
				-0.2441808432340622,
				-0.035522930324077606,
				-0.3662712574005127
			],
			"type":"VEC3"
		},
		{
			"bufferView":9,
			"componentType":5126,
			"count":35,
			"type":"VEC3"
		},
		{
			"bufferView":10,
			"componentType":5126,
			"count":35,
			"type":"VEC2"
		},
		{
			"bufferView":11,
			"componentType":5123,
			"count":144,
			"type":"SCALAR"
		},
		{
			"bufferView":12,
			"componentType":5126,
			"count":3155,
			"max":[
				0.9999999403953552,
				0.00305122509598732,
				0.9999999403953552
			],
			"min":[
				-0.9999999403953552,
				-0.0706242024898529,
				-0.9999999403953552
			],
			"type":"VEC3"
		},
		{
			"bufferView":13,
			"componentType":5126,
			"count":3155,
			"type":"VEC3"
		},
		{
			"bufferView":14,
			"componentType":5126,
			"count":3155,
			"type":"VEC2"
		},
		{
			"bufferView":15,
			"componentType":5123,
			"count":10992,
			"type":"SCALAR"
		},
		{
			"bufferView":16,
			"componentType":5126,
			"count":225,
			"max":[
				0.8546329140663147,
				-0.014180956408381462,
				0.8546329140663147
			],
			"min":[
				-0.8546329140663147,
				-0.014180956408381462,
				-0.8546329140663147
			],
			"type":"VEC3"
		},
		{
			"bufferView":17,
			"componentType":5126,
			"count":225,
			"type":"VEC3"
		},
		{
			"bufferView":18,
			"componentType":5126,
			"count":225,
			"type":"VEC2"
		},
		{
			"bufferView":19,
			"componentType":5123,
			"count":1176,
			"type":"SCALAR"
		},
		{
			"bufferView":20,
			"componentType":5126,
			"count":390,
			"max":[
				-0.5828379392623901,
				-0.053021661937236786,
				-0.21628758311271667
			],
			"min":[
				-0.7952954173088074,
				-0.06772021949291229,
				-0.658634603023529
			],
			"type":"VEC3"
		},
		{
			"bufferView":21,
			"componentType":5126,
			"count":390,
			"type":"VEC3"
		},
		{
			"bufferView":22,
			"componentType":5126,
			"count":390,
			"type":"VEC2"
		},
		{
			"bufferView":23,
			"componentType":5123,
			"count":1116,
			"type":"SCALAR"
		},
		{
			"bufferView":24,
			"componentType":5126,
			"count":260,
			"max":[
				-2.7752227783203125,
				-3.8689041137695312,
				1.2126960754394531
			],
			"min":[
				-7.795467376708984,
				-5.868905067443848,
				-0.7873039245605469
			],
			"type":"VEC3"
		},
		{
			"bufferView":25,
			"componentType":5126,
			"count":260,
			"type":"VEC3"
		},
		{
			"bufferView":26,
			"componentType":5126,
			"count":260,
			"type":"VEC2"
		},
		{
			"bufferView":27,
			"componentType":5123,
			"count":744,
			"type":"SCALAR"
		},
		{
			"bufferView":28,
			"componentType":5126,
			"count":225,
			"max":[
				31.988615036010742,
				7.378741264343262,
				6.363451957702637
			],
			"min":[
				-9.104036331176758,
				7.378741264343262,
				-22.55044174194336
			],
			"type":"VEC3"
		},
		{
			"bufferView":29,
			"componentType":5126,
			"count":225,
			"type":"VEC3"
		},
		{
			"bufferView":30,
			"componentType":5126,
			"count":225,
			"type":"VEC2"
		},
		{
			"bufferView":31,
			"componentType":5123,
			"count":1176,
			"type":"SCALAR"
		},
		{
			"bufferView":32,
			"componentType":5126,
			"count":1776,
			"max":[
				35.68959045410156,
				9.485206604003906,
				8.967557907104492
			],
			"min":[
				-12.805013656616211,
				-5.2823028564453125,
				-25.15454864501953
			],
			"type":"VEC3"
		},
		{
			"bufferView":33,
			"componentType":5126,
			"count":1776,
			"type":"VEC3"
		},
		{
			"bufferView":34,
			"componentType":5126,
			"count":1776,
			"type":"VEC2"
		},
		{
			"bufferView":35,
			"componentType":5123,
			"count":7098,
			"type":"SCALAR"
		},
		{
			"bufferView":36,
			"componentType":5126,
			"count":9,
			"max":[
				11.507165908813477,
				2.522505760192871,
				-5.9933929443359375
			],
			"min":[
				5.6367878913879395,
				2.522505760192871,
				-10.123947143554688
			],
			"type":"VEC3"
		},
		{
			"bufferView":37,
			"componentType":5126,
			"count":9,
			"type":"VEC3"
		},
		{
			"bufferView":38,
			"componentType":5126,
			"count":9,
			"type":"VEC2"
		},
		{
			"bufferView":39,
			"componentType":5123,
			"count":24,
			"type":"SCALAR"
		}
	],
	"bufferViews":[
		{
			"buffer":0,
			"byteLength":11532,
			"byteOffset":0,
			"target":34962
		},
		{
			"buffer":0,
			"byteLength":11532,
			"byteOffset":11532,
			"target":34962
		},
		{
			"buffer":0,
			"byteLength":7688,
			"byteOffset":23064,
			"target":34962
		},
		{
			"buffer":0,
			"byteLength":10800,
			"byteOffset":30752,
			"target":34963
		},
		{
			"buffer":0,
			"byteLength":26292,
			"byteOffset":41552,
			"target":34962
		},
		{
			"buffer":0,
			"byteLength":26292,
			"byteOffset":67844,
			"target":34962
		},
		{
			"buffer":0,
			"byteLength":17528,
			"byteOffset":94136,
			"target":34962
		},
		{
			"buffer":0,
			"byteLength":14268,
			"byteOffset":111664,
			"target":34963
		},
		{
			"buffer":0,
			"byteLength":420,
			"byteOffset":125932,
			"target":34962
		},
		{
			"buffer":0,
			"byteLength":420,
			"byteOffset":126352,
			"target":34962
		},
		{
			"buffer":0,
			"byteLength":280,
			"byteOffset":126772,
			"target":34962
		},
		{
			"buffer":0,
			"byteLength":288,
			"byteOffset":127052,
			"target":34963
		},
		{
			"buffer":0,
			"byteLength":37860,
			"byteOffset":127340,
			"target":34962
		},
		{
			"buffer":0,
			"byteLength":37860,
			"byteOffset":165200,
			"target":34962
		},
		{
			"buffer":0,
			"byteLength":25240,
			"byteOffset":203060,
			"target":34962
		},
		{
			"buffer":0,
			"byteLength":21984,
			"byteOffset":228300,
			"target":34963
		},
		{
			"buffer":0,
			"byteLength":2700,
			"byteOffset":250284,
			"target":34962
		},
		{
			"buffer":0,
			"byteLength":2700,
			"byteOffset":252984,
			"target":34962
		},
		{
			"buffer":0,
			"byteLength":1800,
			"byteOffset":255684,
			"target":34962
		},
		{
			"buffer":0,
			"byteLength":2352,
			"byteOffset":257484,
			"target":34963
		},
		{
			"buffer":0,
			"byteLength":4680,
			"byteOffset":259836,
			"target":34962
		},
		{
			"buffer":0,
			"byteLength":4680,
			"byteOffset":264516,
			"target":34962
		},
		{
			"buffer":0,
			"byteLength":3120,
			"byteOffset":269196,
			"target":34962
		},
		{
			"buffer":0,
			"byteLength":2232,
			"byteOffset":272316,
			"target":34963
		},
		{
			"buffer":0,
			"byteLength":3120,
			"byteOffset":274548,
			"target":34962
		},
		{
			"buffer":0,
			"byteLength":3120,
			"byteOffset":277668,
			"target":34962
		},
		{
			"buffer":0,
			"byteLength":2080,
			"byteOffset":280788,
			"target":34962
		},
		{
			"buffer":0,
			"byteLength":1488,
			"byteOffset":282868,
			"target":34963
		},
		{
			"buffer":0,
			"byteLength":2700,
			"byteOffset":284356,
			"target":34962
		},
		{
			"buffer":0,
			"byteLength":2700,
			"byteOffset":287056,
			"target":34962
		},
		{
			"buffer":0,
			"byteLength":1800,
			"byteOffset":289756,
			"target":34962
		},
		{
			"buffer":0,
			"byteLength":2352,
			"byteOffset":291556,
			"target":34963
		},
		{
			"buffer":0,
			"byteLength":21312,
			"byteOffset":293908,
			"target":34962
		},
		{
			"buffer":0,
			"byteLength":21312,
			"byteOffset":315220,
			"target":34962
		},
		{
			"buffer":0,
			"byteLength":14208,
			"byteOffset":336532,
			"target":34962
		},
		{
			"buffer":0,
			"byteLength":14196,
			"byteOffset":350740,
			"target":34963
		},
		{
			"buffer":0,
			"byteLength":108,
			"byteOffset":364936,
			"target":34962
		},
		{
			"buffer":0,
			"byteLength":108,
			"byteOffset":365044,
			"target":34962
		},
		{
			"buffer":0,
			"byteLength":72,
			"byteOffset":365152,
			"target":34962
		},
		{
			"buffer":0,
			"byteLength":48,
			"byteOffset":365224,
			"target":34963
		}
	],
	"samplers":[
		{
			"magFilter":9729,
			"minFilter":9987
		}
	],
	"buffers":[
		{
			"byteLength":365272,
			"uri":"serv.bin"
		}
	]
}
