{
	"asset":{
		"generator":"Khronos glTF Blender I/O v3.6.27",
		"version":"2.0"
	},
	"scene":0,
	"scenes":[
		{
			"name":"Scene",
			"nodes":[
				0
			]
		}
	],
	"nodes":[
		{
			"mesh":0,
			"name":"\u0421\u0444\u0435\u0440\u0430.001",
			"scale":[
				0.8219640254974365,
				0.8219640254974365,
				0.8219640254974365
			],
			"translation":[
				5.535669326782227,
				0,
				0
			]
		}
	],
	"materials":[
		{
			"doubleSided":true,
			"name":"\u041c\u0430\u0442\u0435\u0440\u0438\u0430\u043b.002",
			"pbrMetallicRoughness":{
				"baseColorTexture":{
					"index":0
				},
				"metallicFactor":0,
				"roughnessFactor":0.5
			}
		},
		{
			"doubleSided":true,
			"name":"\u041c\u0430\u0442\u0435\u0440\u0438\u0430\u043b",
			"pbrMetallicRoughness":{
				"baseColorTexture":{
					"index":1
				},
				"metallicFactor":0,
				"roughnessFactor":0.5
			}
		},
		{
			"doubleSided":true,
			"name":"\u041c\u0430\u0442\u0435\u0440\u0438\u0430\u043b.003",
			"pbrMetallicRoughness":{
				"baseColorTexture":{
					"index":2
				},
				"metallicFactor":0,
				"roughnessFactor":0.5
			}
		},
		{
			"doubleSided":true,
			"name":"\u041c\u0430\u0442\u0435\u0440\u0438\u0430\u043b.004",
			"pbrMetallicRoughness":{
				"baseColorTexture":{
					"index":3
				},
				"metallicFactor":0,
				"roughnessFactor":0.5
			}
		},
		{
			"doubleSided":true,
			"name":"\u041c\u0430\u0442\u0435\u0440\u0438\u0430\u043b.005",
			"pbrMetallicRoughness":{
				"baseColorTexture":{
					"index":4
				},
				"metallicFactor":0,
				"roughnessFactor":0.5
			}
		},
		{
			"doubleSided":true,
			"name":"\u041c\u0430\u0442\u0435\u0440\u0438\u0430\u043b.006",
			"pbrMetallicRoughness":{
				"baseColorTexture":{
					"index":5
				},
				"metallicFactor":0,
				"roughnessFactor":0.5
			}
		},
		{
			"doubleSided":true,
			"name":"\u041c\u0430\u0442\u0435\u0440\u0438\u0430\u043b.007",
			"pbrMetallicRoughness":{
				"baseColorTexture":{
					"index":6
				},
				"metallicFactor":0,
				"roughnessFactor":0.5
			}
		},
		{
			"doubleSided":true,
			"name":"\u041c\u0430\u0442\u0435\u0440\u0438\u0430\u043b.008",
			"pbrMetallicRoughness":{
				"baseColorTexture":{
					"index":7
				},
				"metallicFactor":0,
				"roughnessFactor":0.5
			}
		},
		{
			"doubleSided":true,
			"name":"\u041c\u0430\u0442\u0435\u0440\u0438\u0430\u043b.009",
			"pbrMetallicRoughness":{
				"baseColorTexture":{
					"index":8
				},
				"metallicFactor":0,
				"roughnessFactor":0.5
			}
		}
	],
	"meshes":[
		{
			"name":"\u0421\u0444\u0435\u0440\u0430.001",
			"primitives":[
				{
					"attributes":{
						"POSITION":0,
						"NORMAL":1,
						"TEXCOORD_0":2
					},
					"indices":3,
					"material":0
				},
				{
					"attributes":{
						"POSITION":4,
						"NORMAL":5,
						"TEXCOORD_0":6
					},
					"indices":7,
					"material":1
				},
				{
					"attributes":{
						"POSITION":8,
						"NORMAL":9,
						"TEXCOORD_0":10
					},
					"indices":3,
					"material":2
				},
				{
					"attributes":{
						"POSITION":11,
						"NORMAL":12,
						"TEXCOORD_0":13
					},
					"indices":3,
					"material":3
				},
				{
					"attributes":{
						"POSITION":14,
						"NORMAL":15,
						"TEXCOORD_0":16
					},
					"indices":3,
					"material":4
				},
				{
					"attributes":{
						"POSITION":17,
						"NORMAL":18,
						"TEXCOORD_0":19
					},
					"indices":3,
					"material":5
				},
				{
					"attributes":{
						"POSITION":20,
						"NORMAL":21,
						"TEXCOORD_0":22
					},
					"indices":3,
					"material":6
				},
				{
					"attributes":{
						"POSITION":23,
						"NORMAL":24,
						"TEXCOORD_0":25
					},
					"indices":3,
					"material":7
				},
				{
					"attributes":{
						"POSITION":26,
						"NORMAL":27,
						"TEXCOORD_0":28
					},
					"indices":3,
					"material":8
				}
			]
		}
	],
	"textures":[
		{
			"sampler":0,
			"source":0
		},
		{
			"sampler":0,
			"source":1
		},
		{
			"sampler":0,
			"source":2
		},
		{
			"sampler":0,
			"source":3
		},
		{
			"sampler":0,
			"source":4
		},
		{
			"sampler":0,
			"source":5
		},
		{
			"sampler":0,
			"source":6
		},
		{
			"sampler":0,
			"source":7
		},
		{
			"sampler":0,
			"source":8
		}
	],
	"images":[
		{
			"mimeType":"image/jpeg",
			"name":"162159-e5d804eca950c8963020d4fb01e8df36",
			"uri":"162159-e5d804eca950c8963020d4fb01e8df36.jpg"
		},
		{
			"mimeType":"image/jpeg",
			"name":"0c23605828daa3962d44406ef72e0faa",
			"uri":"0c23605828daa3962d44406ef72e0faa.jpg"
		},
		{
			"mimeType":"image/jpeg",
			"name":"288113-e6bc558a42b557da90241246e31cac3d",
			"uri":"288113-e6bc558a42b557da90241246e31cac3d.jpg"
		},
		{
			"mimeType":"image/jpeg",
			"name":"4ba5bdc4302c9d4ee7d0f31f89964f44",
			"uri":"4ba5bdc4302c9d4ee7d0f31f89964f44.jpg"
		},
		{
			"mimeType":"image/jpeg",
			"name":"1ff484d8a753409e6977ce6537942ad6",
			"uri":"1ff484d8a753409e6977ce6537942ad6.jpg"
		},
		{
			"mimeType":"image/jpeg",
			"name":"4cd0318014803b0c8ec3df374841fefc",
			"uri":"4cd0318014803b0c8ec3df374841fefc.jpg"
		},
		{
			"mimeType":"image/jpeg",
			"name":"48fb2fb145acab38bd2ed42355eaeb0a",
			"uri":"48fb2fb145acab38bd2ed42355eaeb0a.jpg"
		},
		{
			"mimeType":"image/jpeg",
			"name":"a7a180ed8c0f39ff4d8f89d4bb6ce3b3",
			"uri":"a7a180ed8c0f39ff4d8f89d4bb6ce3b3.jpg"
		},
		{
			"mimeType":"image/jpeg",
			"name":"cde4bfb85ffbbe0be391402b07002c9e",
			"uri":"cde4bfb85ffbbe0be391402b07002c9e.jpg"
		}
	],
	"accessors":[
		{
			"bufferView":0,
			"componentType":5126,
			"count":559,
			"max":[
				0.9999997019767761,
				1,
				0.9999993443489075
			],
			"min":[
				-0.9999990463256836,
				-1,
				-1
			],
			"type":"VEC3"
		},
		{
			"bufferView":1,
			"componentType":5126,
			"count":559,
			"type":"VEC3"
		},
		{
			"bufferView":2,
			"componentType":5126,
			"count":559,
			"type":"VEC2"
		},
		{
			"bufferView":3,
			"componentType":5123,
			"count":2880,
			"type":"SCALAR"
		},
		{
			"bufferView":4,
			"componentType":5126,
			"count":559,
			"max":[
				-4.138614654541016,
				2.596071243286133,
				2.596069574356079
			],
			"min":[
				-9.330753326416016,
				-2.596071243286133,
				-2.596071243286133
			],
			"type":"VEC3"
		},
		{
			"bufferView":5,
			"componentType":5126,
			"count":559,
			"type":"VEC3"
		},
		{
			"bufferView":6,
			"componentType":5126,
			"count":559,
			"type":"VEC2"
		},
		{
			"bufferView":7,
			"componentType":5123,
			"count":2880,
			"type":"SCALAR"
		},
		{
			"bufferView":8,
			"componentType":5126,
			"count":559,
			"max":[
				-5.692668914794922,
				0.9999999403953552,
				-5.813572883605957
			],
			"min":[
				-7.692667484283447,
				-0.9999999403953552,
				-7.813572406768799
			],
			"type":"VEC3"
		},
		{
			"bufferView":9,
			"componentType":5126,
			"count":559,
			"type":"VEC3"
		},
		{
			"bufferView":10,
			"componentType":5126,
			"count":559,
			"type":"VEC2"
		},
		{
			"bufferView":11,
			"componentType":5126,
			"count":559,
			"max":[
				-12.569881439208984,
				0.9999999403953552,
				0.9935344457626343
			],
			"min":[
				-14.569880485534668,
				-0.9999999403953552,
				-1.0064648389816284
			],
			"type":"VEC3"
		},
		{
			"bufferView":12,
			"componentType":5126,
			"count":559,
			"type":"VEC3"
		},
		{
			"bufferView":13,
			"componentType":5126,
			"count":559,
			"type":"VEC2"
		},
		{
			"bufferView":14,
			"componentType":5126,
			"count":559,
			"max":[
				-5.720122814178467,
				0.9999999403953552,
				7.732100486755371
			],
			"min":[
				-7.720121383666992,
				-0.9999999403953552,
				5.7321014404296875
			],
			"type":"VEC3"
		},
		{
			"bufferView":15,
			"componentType":5126,
			"count":559,
			"type":"VEC3"
		},
		{
			"bufferView":16,
			"componentType":5126,
			"count":559,
			"type":"VEC2"
		},
		{
			"bufferView":17,
			"componentType":5126,
			"count":559,
			"max":[
				-0.7501529455184937,
				0.9999999403953552,
				5.894130706787109
			],
			"min":[
				-2.7501516342163086,
				-0.9999999403953552,
				3.8941311836242676
			],
			"type":"VEC3"
		},
		{
			"bufferView":18,
			"componentType":5126,
			"count":559,
			"type":"VEC3"
		},
		{
			"bufferView":19,
			"componentType":5126,
			"count":559,
			"type":"VEC2"
		},
		{
			"bufferView":20,
			"componentType":5126,
			"count":559,
			"max":[
				-10.57247543334961,
				0.9999999403953552,
				5.894130706787109
			],
			"min":[
				-12.572474479675293,
				-0.9999999403953552,
				3.8941311836242676
			],
			"type":"VEC3"
		},
		{
			"bufferView":21,
			"componentType":5126,
			"count":559,
			"type":"VEC3"
		},
		{
			"bufferView":22,
			"componentType":5126,
			"count":559,
			"type":"VEC2"
		},
		{
			"bufferView":23,
			"componentType":5126,
			"count":559,
			"max":[
				-10.57247543334961,
				0.9999999403953552,
				-3.845435380935669
			],
			"min":[
				-12.572474479675293,
				-0.9999999403953552,
				-5.845434665679932
			],
			"type":"VEC3"
		},
		{
			"bufferView":24,
			"componentType":5126,
			"count":559,
			"type":"VEC3"
		},
		{
			"bufferView":25,
			"componentType":5126,
			"count":559,
			"type":"VEC2"
		},
		{
			"bufferView":26,
			"componentType":5126,
			"count":559,
			"max":[
				-0.824673056602478,
				0.9999999403953552,
				-3.845435380935669
			],
			"min":[
				-2.824671745300293,
				-0.9999999403953552,
				-5.845434665679932
			],
			"type":"VEC3"
		},
		{
			"bufferView":27,
			"componentType":5126,
			"count":559,
			"type":"VEC3"
		},
		{
			"bufferView":28,
			"componentType":5126,
			"count":559,
			"type":"VEC2"
		}
	],
	"bufferViews":[
		{
			"buffer":0,
			"byteLength":6708,
			"byteOffset":0,
			"target":34962
		},
		{
			"buffer":0,
			"byteLength":6708,
			"byteOffset":6708,
			"target":34962
		},
		{
			"buffer":0,
			"byteLength":4472,
			"byteOffset":13416,
			"target":34962
		},
		{
			"buffer":0,
			"byteLength":5760,
			"byteOffset":17888,
			"target":34963
		},
		{
			"buffer":0,
			"byteLength":6708,
			"byteOffset":23648,
			"target":34962
		},
		{
			"buffer":0,
			"byteLength":6708,
			"byteOffset":30356,
			"target":34962
		},
		{
			"buffer":0,
			"byteLength":4472,
			"byteOffset":37064,
			"target":34962
		},
		{
			"buffer":0,
			"byteLength":5760,
			"byteOffset":41536,
			"target":34963
		},
		{
			"buffer":0,
			"byteLength":6708,
			"byteOffset":47296,
			"target":34962
		},
		{
			"buffer":0,
			"byteLength":6708,
			"byteOffset":54004,
			"target":34962
		},
		{
			"buffer":0,
			"byteLength":4472,
			"byteOffset":60712,
			"target":34962
		},
		{
			"buffer":0,
			"byteLength":6708,
			"byteOffset":65184,
			"target":34962
		},
		{
			"buffer":0,
			"byteLength":6708,
			"byteOffset":71892,
			"target":34962
		},
		{
			"buffer":0,
			"byteLength":4472,
			"byteOffset":78600,
			"target":34962
		},
		{
			"buffer":0,
			"byteLength":6708,
			"byteOffset":83072,
			"target":34962
		},
		{
			"buffer":0,
			"byteLength":6708,
			"byteOffset":89780,
			"target":34962
		},
		{
			"buffer":0,
			"byteLength":4472,
			"byteOffset":96488,
			"target":34962
		},
		{
			"buffer":0,
			"byteLength":6708,
			"byteOffset":100960,
			"target":34962
		},
		{
			"buffer":0,
			"byteLength":6708,
			"byteOffset":107668,
			"target":34962
		},
		{
			"buffer":0,
			"byteLength":4472,
			"byteOffset":114376,
			"target":34962
		},
		{
			"buffer":0,
			"byteLength":6708,
			"byteOffset":118848,
			"target":34962
		},
		{
			"buffer":0,
			"byteLength":6708,
			"byteOffset":125556,
			"target":34962
		},
		{
			"buffer":0,
			"byteLength":4472,
			"byteOffset":132264,
			"target":34962
		},
		{
			"buffer":0,
			"byteLength":6708,
			"byteOffset":136736,
			"target":34962
		},
		{
			"buffer":0,
			"byteLength":6708,
			"byteOffset":143444,
			"target":34962
		},
		{
			"buffer":0,
			"byteLength":4472,
			"byteOffset":150152,
			"target":34962
		},
		{
			"buffer":0,
			"byteLength":6708,
			"byteOffset":154624,
			"target":34962
		},
		{
			"buffer":0,
			"byteLength":6708,
			"byteOffset":161332,
			"target":34962
		},
		{
			"buffer":0,
			"byteLength":4472,
			"byteOffset":168040,
			"target":34962
		}
	],
	"samplers":[
		{
			"magFilter":9729,
			"minFilter":9987
		}
	],
	"buffers":[
		{
			"byteLength":172512,
			"uri":"plan.bin"
		}
	]
}
